<?xml version="1.0" standalone="no"?><!DOCTYPE svg PUBLIC "-//W3C//DTD SVG 1.1//EN" "http://www.w3.org/Graphics/SVG/1.1/DTD/svg11.dtd"><svg t="1491800671015" class="icon" style="" viewBox="0 0 1000 1000" version="1.1" xmlns="http://www.w3.org/2000/svg" p-id="2374" xmlns:xlink="http://www.w3.org/1999/xlink" width="25" height="25"><defs><style type="text/css"></style></defs><path d="M514.087 106.6017c-198.8295 0-360.007 161.1797-360.007 360.0149 0 198.8082 161.1775 359.9919 360.007 359.9919s360.012-161.1837 360.012-359.9919C874.0991 267.7814 712.9166 106.6017 514.087 106.6017zM705.6172 621.4597l-31.8208 31.8144c-17.5778 17.5771-46.0677 17.5771-63.6455 0l-97.2302-97.2281-97.3601 97.363c-17.0691 17.0544-44.7445 17.0544-61.8137 0l-30.9073-30.91c-17.0691-17.0724-17.0691-44.7337 0-61.8111l97.3641-97.356-96.4377-96.4346c-17.5728-17.5591-17.5728-46.0708 0-63.6289l31.8208-31.8324c17.5728-17.5631 46.0677-17.5631 63.6365 0l96.4457 96.4406 85.3237-85.3162c17.0731-17.0724 44.7445-17.0724 61.8187 0l30.9023 30.8881c17.0691 17.0594 17.0691 44.7427 0 61.8021l-85.3317 85.3341 97.2352 97.2291C723.1911 575.3889 723.1911 603.8786 705.6172 621.4597z" p-id="2375" fill="#ffffff"></path></svg>