<?xml version="1.0" standalone="no"?><!DOCTYPE svg PUBLIC "-//W3C//DTD SVG 1.1//EN" "http://www.w3.org/Graphics/SVG/1.1/DTD/svg11.dtd"><svg t="1490244631508" class="icon" style="" viewBox="0 0 1024 1024" version="1.1" xmlns="http://www.w3.org/2000/svg" p-id="5001" xmlns:xlink="http://www.w3.org/1999/xlink" width="70" height="60"><defs><style type="text/css"></style></defs><path d="M927.693072 288.145629c-17.863856 0-32.344662 14.480806-32.344662 32.341592l0 533.184485c0 22.588461-18.374486 40.96397-40.961924 40.96397L169.609421 894.635677c-22.585391 0-40.959877-18.375509-40.959877-40.96397l0-657.648195c0-22.585391 18.374486-40.957831 40.959877-40.957831l126.103046 0c3.364631 0 6.608511-0.51677 9.660011-1.469468l247.89695 0c17.862833 0 32.343639-14.480806 32.343639-32.343639 0-17.860786-14.480806-32.341592-32.343639-32.341592L169.609421 88.910982c-58.253752 0-105.646132 47.391357-105.646132 105.646132l0 1.467421 0 657.648195 0 1.469468c0 58.256822 47.39238 105.648179 105.646132 105.648179l334.48912 0c3.363607 0 6.610558-0.515746 9.660011-1.467421l340.627934 0c58.254775 0 105.648179-47.393403 105.648179-105.650225L960.034664 320.487222C960.034664 302.624389 945.554882 288.145629 927.693072 288.145629L927.693072 288.145629z" p-id="5002" fill="#303342"></path><path d="M709.822996 228.67312l-132.456754 128.276549L437.151803 231.407394c-12.621459-11.2973-31.815613-10.94733-44.0124 0.805342L186.98516 430.800653c-12.863982 12.391215-13.244652 32.866548-0.854461 45.730531 6.349615 6.589069 14.817474 9.903557 23.298636 9.903557 8.073886 0 16.160051-3.006474 22.434965-9.048073l184.519504-177.750333 140.271744 125.595486c12.641925 11.31879 31.883151 10.942213 44.073798-0.862647l154.839531-149.948127 47.306422 47.303352c4.100388 4.100388 9.605775 6.314823 15.247262 6.314823 1.944282 0 3.903913-0.260943 5.827729-0.802272 7.505951-2.109034 13.288654-8.101515 15.125489-15.679098l45.391816-187.257871c1.772366-7.30743-0.390903-15.009855-5.706979-20.325931-5.316076-5.318122-13.015432-7.480368-20.325931-5.709025l-187.258894 45.39591c-7.574512 1.837858-13.571087 7.620561-15.678074 15.126512-2.108011 7.505951 0 15.565511 5.51255 21.076014L709.822996 228.67312 709.822996 228.67312z" p-id="5003" fill="#303342"></path><path d="M233.821885 691.071422l-0.945535 80.379679c-0.206708 17.859763 14.100136 32.510438 31.961946 32.720216 0.128937 0 0.25685 0.004093 0.38681 0.004093 17.684778 0 32.124651-14.232143 32.333406-31.961946l0.946558-80.381725c0.208754-17.859763-14.100136-32.510438-31.961946-32.720216C248.650615 658.857742 234.032686 673.209612 233.821885 691.071422L233.821885 691.071422z" p-id="5004" fill="#303342"></path><path d="M442.31029 506.857886c-17.799388 0-32.266891 14.395872-32.339546 32.210609l-0.943488 232.632291c-0.073678 17.86181 14.347776 32.397874 32.210609 32.473599 0.046049 0 0.089028 0 0.135076 0 17.800411 0 32.266891-14.395872 32.340569-32.210609l0.943488-232.634338c0.072655-17.860786-14.3488-32.398898-32.212656-32.472576C442.397271 506.857886 442.356338 506.857886 442.31029 506.857886L442.31029 506.857886z" p-id="5005" fill="#303342"></path><path d="M591.706855 574.917982c-17.773805 0-32.236192 14.358009-32.339546 32.158421l-0.943488 164.568103c-0.103354 17.859763 14.295588 32.426527 32.156374 32.525788 0.063445 0 0.125867 0 0.191358 0 17.773805 0 32.235169-14.353916 32.336476-32.156374l0.945535-164.568103c0.103354-17.86181-14.294564-32.426527-32.156374-32.529881C591.832721 574.917982 591.769276 574.917982 591.706855 574.917982L591.706855 574.917982z" p-id="5006" fill="#303342"></path><path d="M758.104629 410.401044c-17.815761 0-32.28838 14.419408-32.339546 32.249495l-0.945535 329.086064c-0.053212 17.863856 14.387685 32.385595 32.249495 32.437783 0.031722 0 0.062422 0 0.095167 0 17.816784 0 32.28838-14.420431 32.339546-32.250518l0.947582-329.089134c0.052189-17.86181-14.389732-32.383548-32.251541-32.43676C758.167051 410.401044 758.139421 410.401044 758.104629 410.401044L758.104629 410.401044z" p-id="5007" fill="#303342"></path></svg>