<?xml version="1.0" encoding="utf-8"?>
<!-- Generator: Adobe Illustrator 16.0.0, SVG Export Plug-In . SVG Version: 6.00 Build 0)  -->
<!DOCTYPE svg PUBLIC "-//W3C//DTD SVG 1.1//EN" "http://www.w3.org/Graphics/SVG/1.1/DTD/svg11.dtd">
<svg version="1.1" id="圖層_1" xmlns="http://www.w3.org/2000/svg" xmlns:xlink="http://www.w3.org/1999/xlink" x="0px" y="0px"
	 width="334px" height="142px" viewBox="0 0 334 142" enable-background="new 0 0 334 142" xml:space="preserve">
<path fill="#004885" d="M112.174,50.818c0.166-0.547,0.663-0.872,1.541-0.872h8.268c0.795,0,1.171,0.325,1.005,0.872l-12.824,41.956
	c-0.171,0.546-0.746,0.873-1.541,0.873h-8.268c-0.878,0-1.176-0.327-1.005-0.873"/>
<path fill="#004885" d="M160.156,49.946c0.884,0,1.182,0.325,1.016,0.872l-1.668,5.462c-0.171,0.546-0.668,0.878-1.552,0.878h-9.218
	l-10.885,35.616c-0.187,0.603-0.667,0.873-1.551,0.873h-8.268c-0.794,0-1.187-0.271-0.999-0.873l10.885-35.616h-9.229
	c-0.801,0-1.182-0.332-1.016-0.878l1.668-5.462c0.171-0.547,0.751-0.872,1.551-0.872H160.156z"/>
<path fill="#E67939" d="M188.161,49.946c7.473,0,10.62,2.728,9.052,7.864l-1.768,5.788c-0.165,0.552-0.668,0.878-1.541,0.878h-8.278
	c-0.801,0-1.176-0.326-1.01-0.878l1.309-4.258c0.436-1.419-0.365-2.181-2.519-2.181h-3.811c-1.994,0-3.418,0.762-3.854,2.181
	l-2.304,7.539l17.629,4.263c1.236,0.382,1.772,0.983,1.452,2.021l-3.854,12.619c-1.568,5.131-6.391,7.865-13.862,7.865h-8.914
	c-7.395,0-10.615-2.734-9.046-7.865l1.756-5.737c0.182-0.603,0.74-0.873,1.535-0.873h8.279c0.867,0,1.187,0.271,0.999,0.873
	l-1.286,4.208c-0.453,1.475,0.524,2.182,2.518,2.182h3.812c2.076,0,3.396-0.707,3.849-2.182l2.221-7.268l-17.545-4.264
	c-1.332-0.326-1.845-0.978-1.525-2.021l3.943-12.89c1.568-5.136,6.456-7.864,13.852-7.864H188.161z"/>
<path fill="#E67939" d="M217.111,49.946c0.795,0,1.171,0.325,1.004,0.872l-12.823,41.956c-0.171,0.546-0.745,0.873-1.54,0.873
	h-8.278c-0.873,0-1.171-0.327-1-0.873l12.823-41.956c0.166-0.547,0.663-0.872,1.536-0.872H217.111z"/>
<path fill="#E67939" d="M246.701,49.946c7.478,0,10.62,2.728,9.052,7.864l-1.768,5.788c-0.171,0.552-0.673,0.878-1.546,0.878h-8.267
	c-0.796,0-1.177-0.326-1.006-0.878l1.303-4.258c0.437-1.419-0.37-2.181-2.518-2.181h-3.816c-1.993,0-3.407,0.762-3.844,2.181
	l-2.303,7.539l17.623,4.263c1.231,0.382,1.768,0.983,1.446,2.021l-3.86,12.619c-1.568,5.131-6.378,7.865-13.855,7.865h-8.908
	c-7.4,0-10.621-2.734-9.053-7.865l1.757-5.737c0.177-0.603,0.74-0.873,1.535-0.873h8.278c0.873,0,1.193,0.271,1.006,0.873
	l-1.287,4.208c-0.448,1.475,0.519,2.182,2.519,2.182h3.81c2.071,0,3.402-0.707,3.855-2.182l2.22-7.268l-17.556-4.264
	c-1.331-0.326-1.845-0.978-1.524-2.021l3.937-12.89c1.575-5.136,6.462-7.864,13.863-7.864H246.701z"/>
<path fill="#004885" d="M43.898,128.743c-1.11,0.852-2.485,0.852-3.076,0L2.097,72.954c-0.591-0.846-0.171-2.221,0.933-3.066
	l72.839-55.784c1.11-0.845,2.485-0.845,3.076,0l24.239,34.914L89.609,93.42L43.898,128.743z M26.764,66.547
	c-3.214,0-6.625,2.607-7.61,5.832c-0.986,3.226,0.831,5.832,4.045,5.832c3.223,0,6.638-2.606,7.624-5.832
	C31.806,69.154,29.989,66.547,26.764,66.547z"/>
<polygon fill="#004885" points="266.081,51.117 253.771,91.377 306.208,91.377 313.294,86.45 260.553,86.45 262.408,80.387 
	322.025,80.387 330.812,74.279 274.52,74.279 276.369,68.215 332.662,68.215 318.518,51.117 307.678,51.117 302.066,53.839 
	298.117,51.117 286.752,51.117 274.906,58.959 268.367,51.117 "/>
<path fill="#FFFFFF" d="M70.743,95.686h4.01l-13.569,10.388L53.96,95.686h4.076l5.898-20.258H51.983l-5.898,19.285
	c-0.188,0.613-0.861,0.973-1.794,0.973h-9.621c-1.121,0-1.479-0.359-1.292-0.973l14.895-47.55h0.021h-4.225l13.575-10.388
	l7.224,10.388h-3.888L54.424,67.42H66.38l5.898-19.285c0.183-0.607,0.856-0.972,1.795-0.972h9.62c1.122,0,1.475,0.365,1.292,0.972
	L70.743,95.686z"/>
</svg>
