<?xml version="1.0" encoding="utf-8"?>
<!-- Generator: Adobe Illustrator 16.0.0, SVG Export Plug-In . SVG Version: 6.00 Build 0)  -->
<!DOCTYPE svg PUBLIC "-//W3C//DTD SVG 1.1//EN" "http://www.w3.org/Graphics/SVG/1.1/DTD/svg11.dtd">
<svg version="1.1" id="圖層_1" xmlns="http://www.w3.org/2000/svg" xmlns:xlink="http://www.w3.org/1999/xlink" x="0px" y="0px"
	 width="750" height="750" viewBox="0 0 334 142" enable-background="new 0 0 334 142" xml:space="preserve">
<g>
	<path fill="none" d="M244.107,25.268c0.621-2.271,1.086-4.44,1.396-6.507c0.311-2.065,0.361-3.797,0.154-5.192
		c-0.209-1.394-0.672-2.452-1.395-3.175c-0.725-0.722-1.705-0.93-2.945-0.619c-1.861,0.518-3.465,2.013-4.807,4.492
		c-1.344,2.479-2.432,5.577-3.256,9.297c2.688,0.311,5.684,0.774,8.992,1.394C243.072,25.165,243.693,25.268,244.107,25.268z"/>
	<path fill="none" d="M291.42,94.398c-1.709-1.52-3.734-1.711-5.191-1.711c-0.379,0-0.992,0.043-1.141,0.127
		c-0.168,0.064-0.23,0.148-0.23,0.359c-0.021,0.613-0.021,2.088-0.021,3.502v2.258c0,1.898,0.021,3.271,0.043,3.631
		c0.02,0.441,0.063,1.074,0.209,1.266c0.232,0.338,0.973,0.717,2.43,0.717c1.688,0,2.93-0.295,4.049-1.225
		c1.205-0.992,1.584-2.594,1.584-4.451C293.15,96.592,292.242,95.115,291.42,94.398z"/>
	<path fill="none" d="M199.613,60.593c-1.447-0.514-2.895-0.41-4.34,0.311c-1.447,0.724-2.584,2.273-3.41,4.648
		c-0.93,2.378-1.191,4.624-0.775,6.741c0.412,2.117,1.396,3.434,2.943,3.949c1.449,0.52,2.998,0.055,4.652-1.395
		c1.652-1.445,2.891-3.354,3.721-5.731c0.723-2.066,0.801-3.873,0.232-5.424C202.068,62.144,201.063,61.111,199.613,60.593z"/>
	<path fill="none" d="M320.84,92.457c-2.068,0-4.492,1.096-4.492,5.527c0,3.693,2.109,6.605,5.611,6.605
		c1.309,0,4.262-0.613,4.262-5.719C326.221,94.904,323.836,92.457,320.84,92.457z"/>
	<path fill="none" d="M168.764,63.538c0.826-1.343,1.242-2.635,1.242-3.875c0-1.239-0.338-2.192-1.01-2.865
		c-0.545-0.544-1.214-0.712-1.996-0.544v9.211C167.739,64.877,168.332,64.237,168.764,63.538z"/>
	<path fill="none" d="M243.021,28.987l-10.387-1.861c-0.619,3.617-1.033,7.465-1.238,11.544c-0.209,4.081-0.209,8.083,0,12.008
		c2.375-2.789,4.572-6.12,6.588-9.994C240,36.811,241.68,32.913,243.021,28.987z"/>
	<path fill="none" d="M317.277,63.538c0.83-1.343,1.242-2.635,1.242-3.875c0-1.239-0.336-2.192-1.006-2.865
		c-0.674-0.671-1.525-0.799-2.561-0.387c-1.137,0.518-1.859,1.807-2.17,3.873s-0.207,4.286,0.311,6.661
		C315.059,66.017,316.449,64.88,317.277,63.538z"/>
	<path fill="#D44E28" d="M234.365,97.121l-0.758-0.424c-1.668-0.928-1.963-1.561-1.963-2.363c0-1.223,1.201-1.918,2.531-1.918
		c1.203,0,1.795,0.506,2.068,0.842c0.402,0.465,0.486,1.014,0.486,1.184c0,0.209,0.063,0.316,0.189,0.316
		c0.146,0,0.232-0.191,0.232-0.57c0-1.414,0.063-1.918,0.063-2.15c0-0.127-0.084-0.191-0.254-0.232
		c-0.482-0.127-1.434-0.295-2.637-0.295c-2.574,0-4.684,1.412-4.684,3.605c0,1.582,0.717,2.785,2.91,4.072l1.078,0.633
		c1.645,0.971,1.836,1.752,1.836,2.533c0,1.264-0.973,2.277-2.576,2.277c-1.16,0-2.553-0.441-2.953-1.771
		c-0.105-0.318-0.168-0.697-0.168-0.93c0-0.125-0.021-0.295-0.189-0.295c-0.15,0-0.234,0.189-0.234,0.465
		c-0.021,0.295-0.104,1.414-0.104,2.385c0,0.4,0.064,0.484,0.359,0.609c0.799,0.361,1.939,0.467,3.016,0.467
		c0.992,0,2.217-0.105,3.102-0.74c1.35-0.949,1.857-2.025,1.857-3.355C237.574,99.842,236.814,98.471,234.365,97.121z"/>
	<path fill="#D44E28" d="M255.586,91.637c-0.064,0-0.213,0.041-0.508,0.084c-0.273,0.041-0.674,0.084-1.264,0.084h-7.531
		c-0.613,0-1.309-0.021-1.859-0.084c-0.463-0.064-0.654-0.211-0.801-0.211c-0.105,0-0.168,0.105-0.211,0.336
		c-0.045,0.148-0.402,1.877-0.402,2.172c0,0.191,0.043,0.295,0.17,0.295s0.166-0.084,0.211-0.23
		c0.043-0.129,0.127-0.359,0.316-0.613c0.273-0.4,0.717-0.525,1.793-0.547l2.764-0.064v7.258c0,1.646,0,3.061-0.082,3.818
		c-0.066,0.529-0.172,0.865-0.551,0.951c-0.146,0.043-0.379,0.063-0.652,0.063c-0.232,0-0.295,0.105-0.295,0.189
		c0,0.127,0.123,0.191,0.357,0.191c0.738,0,2.004-0.064,2.426-0.064c0.527,0,1.771,0.064,2.996,0.064
		c0.211,0,0.357-0.064,0.357-0.191c0-0.084-0.082-0.189-0.293-0.189c-0.275,0-0.697-0.02-0.951-0.063
		c-0.547-0.086-0.652-0.422-0.717-0.93c-0.084-0.779-0.105-2.193-0.105-3.84v-7.258l2.342,0.043
		c1.666,0.021,2.152,0.568,2.195,1.033l0.021,0.189c0.021,0.275,0.061,0.359,0.209,0.359c0.107,0,0.15-0.105,0.17-0.295
		c0-0.465,0.043-1.793,0.043-2.172C255.734,91.742,255.713,91.637,255.586,91.637z"/>
	<path fill="#D44E28" d="M274.969,91.762c-0.717,0-1.961,0.043-2.174,0.043c-0.021,0-1.264-0.043-2.215-0.043
		c-0.252,0-0.379,0.043-0.379,0.17s0.105,0.189,0.314,0.189c0.213,0,0.529,0.021,0.678,0.063c0.59,0.17,0.738,0.357,0.779,0.969
		c0.021,0.57,0.043,1.076,0.043,3.799v2.258c0,1.836-0.043,3.396-1.078,4.367c-0.736,0.719-1.684,0.949-2.488,0.949
		c-0.631,0-1.52-0.064-2.34-0.717c-0.908-0.719-1.416-1.73-1.416-4.346v-2.512c0-2.723,0-3.229,0.043-3.799
		c0.043-0.633,0.189-0.883,0.674-0.969c0.232-0.041,0.34-0.063,0.549-0.063c0.191,0,0.297-0.063,0.297-0.189s-0.127-0.17-0.4-0.17
		c-0.676,0-1.92,0.043-2.385,0.043c-0.549,0-1.795-0.043-2.785-0.043c-0.275,0-0.402,0.043-0.402,0.17s0.105,0.189,0.316,0.189
		c0.256,0,0.57,0.021,0.719,0.063c0.59,0.17,0.758,0.336,0.801,0.969c0.041,0.57,0.021,1.076,0.021,3.799v2.637
		c0,2.596,0.738,3.926,1.688,4.748c1.352,1.182,3.27,1.225,4.242,1.225c1.203,0,2.615-0.191,3.924-1.287
		c1.561-1.289,1.773-3.398,1.773-5.402v-1.92c0-2.723,0.02-3.229,0.041-3.799c0.043-0.633,0.168-0.883,0.676-0.969
		c0.232-0.041,0.338-0.063,0.549-0.063s0.316-0.063,0.316-0.189S275.223,91.762,274.969,91.762z"/>
	<path fill="#D44E28" d="M286.588,91.762c-1.119,0-2.447,0.043-3.018,0.043c-0.527,0-1.709-0.043-2.68-0.043
		c-0.273,0-0.422,0.043-0.422,0.17s0.127,0.189,0.316,0.189c0.275,0,0.59,0.021,0.738,0.063c0.592,0.17,0.758,0.357,0.803,0.969
		c0.021,0.57,0.021,1.076,0.021,3.799v3.164c0,1.646,0,3.061-0.086,3.818c-0.063,0.529-0.168,0.865-0.549,0.951
		c-0.17,0.043-0.379,0.063-0.652,0.063c-0.232,0-0.297,0.105-0.297,0.189c0,0.127,0.127,0.191,0.359,0.191
		c0.379,0,0.842-0.021,1.287-0.043c0.441,0,0.842-0.021,1.055-0.021c0.465,0,1.139,0.043,1.877,0.105
		c0.74,0.043,1.541,0.105,2.217,0.105c3.418,0,5.381-1.266,6.227-2.109c1.053-1.035,2.023-2.744,2.023-5
		c0-2.133-0.824-3.631-1.754-4.557C292.031,91.762,288.906,91.762,286.588,91.762z M291.566,103.322
		c-1.119,0.93-2.361,1.225-4.049,1.225c-1.457,0-2.197-0.379-2.43-0.717c-0.146-0.191-0.189-0.824-0.209-1.266
		c-0.021-0.359-0.043-1.732-0.043-3.631v-2.258c0-1.414,0-2.889,0.021-3.502c0-0.211,0.063-0.295,0.23-0.359
		c0.148-0.084,0.762-0.127,1.141-0.127c1.457,0,3.482,0.191,5.191,1.711c0.822,0.717,1.73,2.193,1.73,4.473
		C293.15,100.729,292.771,102.33,291.566,103.322z"/>
	<path fill="#D44E28" d="M307.719,104.947c-0.273,0-0.695-0.021-0.947-0.063c-0.551-0.086-0.676-0.359-0.74-0.846
		c-0.084-0.758-0.084-2.193-0.084-3.924v-3.164c0-2.723,0-3.229,0.041-3.799c0.043-0.633,0.191-0.883,0.699-0.969
		c0.209-0.041,0.357-0.063,0.547-0.063s0.295-0.041,0.295-0.211c0-0.105-0.146-0.148-0.379-0.148c-0.717,0-1.92,0.043-2.385,0.043
		c-0.527,0-1.793-0.043-2.49-0.043c-0.295,0-0.441,0.043-0.441,0.148c0,0.17,0.105,0.211,0.295,0.211
		c0.232,0,0.465,0.021,0.676,0.084c0.4,0.127,0.59,0.336,0.633,0.947c0.02,0.57,0.02,1.076,0.02,3.799v3.164
		c0,1.73,0,3.166-0.084,3.904c-0.063,0.527-0.168,0.779-0.547,0.865c-0.17,0.041-0.383,0.063-0.656,0.063
		c-0.23,0-0.295,0.107-0.295,0.189c0,0.127,0.127,0.191,0.359,0.191c0.738,0,2.004-0.064,2.428-0.064
		c0.504,0,1.771,0.064,2.994,0.064c0.211,0,0.359-0.064,0.359-0.191C308.016,105.055,307.93,104.947,307.719,104.947z"/>
	<path fill="#D44E28" d="M321.389,91.51c-5.635,0-7.785,3.963-7.785,7.023c0,3.186,2.193,7.027,7.594,7.027
		c4.791,0,7.787-3.23,7.787-7.344C328.984,94.102,326.072,91.51,321.389,91.51z M321.959,104.59c-3.502,0-5.611-2.912-5.611-6.605
		c0-4.432,2.424-5.527,4.492-5.527c2.996,0,5.381,2.447,5.381,6.414C326.221,103.977,323.268,104.59,321.959,104.59z"/>
	<rect x="167" y="97.746" fill="#D44E28" width="52.762" height="1.828"/>
	<path fill="#303342" d="M261.471,38.128c-1.654-1.031-3.203-1.497-4.65-1.396c-0.828,0-1.654,0.389-2.48,1.162
		c-0.828,0.776-1.576,1.654-2.248,2.635c-0.672,0.982-1.215,1.99-1.627,3.021c-0.416,1.034-0.57,1.859-0.465,2.48
		c0.102,0.619,0.334,1.266,0.697,1.936c0.361,0.674,0.852,1.24,1.473,1.705s1.342,0.774,2.17,0.93
		c0.826,0.154,1.652-0.025,2.48-0.543c0.311-0.102,0.801-0.465,1.473-1.084s1.396-1.318,2.172-2.092
		c0.773-0.775,1.445-1.601,2.014-2.479c0.568-0.876,0.955-1.677,1.164-2.401C263.85,40.451,263.123,39.161,261.471,38.128z"/>
	<path fill="#303342" d="M168.996,56.798c0.672,0.673,1.01,1.626,1.01,2.865c0,1.24-0.416,2.532-1.242,3.875
		c-0.432,0.699-1.024,1.339-1.764,1.927v3.507c1.563-0.495,3.006-1.244,4.322-2.258c1.807-1.396,3.178-2.943,4.107-4.648
		c0.932-1.704,1.369-3.408,1.318-5.113c-0.053-1.704-0.752-3.123-2.092-4.261c-1.035-0.825-2.248-1.263-3.645-1.317
		c-1.313-0.048-2.652,0.212-4.012,0.759v4.121C167.782,56.085,168.451,56.254,168.996,56.798z"/>
	<path fill="#303342" d="M333.094,65.475c-0.93-0.156-1.604,0.337-2.016,1.471c-0.828,2.273-1.834,4.211-3.023,5.813
		c-1.188,1.6-2.48,2.738-3.877,3.408c-1.395,0.674-2.816,0.826-4.264,0.465s-2.787-1.418-4.029-3.176
		c-0.52-0.516-0.932-1.111-1.24-1.782c-0.311-0.671-0.621-1.42-0.932-2.249c2.275-0.41,4.314-1.316,6.127-2.711
		c1.807-1.396,3.178-2.943,4.105-4.648c0.932-1.704,1.369-3.408,1.32-5.113c-0.055-1.704-0.752-3.123-2.092-4.261
		c-1.037-0.825-2.25-1.263-3.645-1.317c-1.396-0.051-2.818,0.232-4.264,0.853c-1.449,0.62-2.869,1.55-4.264,2.789
		c-1.367,1.214-2.506,2.68-3.428,4.388c-0.5,0.16-1.035,0.324-1.609,0.494c-2.273,0.671-4.961,0.851-8.063,0.541
		c0-1.24-0.26-2.271-0.775-3.099c-0.828-1.031-1.809-1.782-2.943-2.247c-1.139-0.465-2.227-0.748-3.26-0.852h-0.619
		c-1.447,0.104-2.584,0.518-3.41,1.238c-0.828,0.725-1.033,1.604-0.619,2.635c0.207,0.621,0.643,1.293,1.318,2.015
		c0.668,0.724,1.42,1.342,2.248,1.858c0.205,1.345,0.23,2.817,0.076,4.417c-0.154,1.603-0.465,3.124-0.932,4.57
		c-0.465,1.447-1.059,2.662-1.781,3.643s-1.449,1.473-2.172,1.473c-1.756,0.207-3.205-0.467-4.34-2.016
		c-1.139-1.551-1.965-3.41-2.479-5.579c-0.52-2.169-0.803-4.363-0.855-6.584s0.078-3.898,0.389-5.036
		c0.412-1.446,0.205-2.325-0.621-2.634c-0.828-0.311-1.859-0.283-3.102,0.076c-1.238,0.363-2.455,1.035-3.643,2.016
		c-1.189,0.982-1.938,2.091-2.248,3.33c-0.586,2.27-0.566,4.52,0.043,6.754c-0.074,0.158-0.141,0.33-0.193,0.528
		c-0.416,1.034-0.982,2.224-1.707,3.564c-0.725,1.343-1.549,2.584-2.479,3.719c-0.521,0.52-1.086,0.928-1.707,1.238
		s-1.24,0.443-1.861,0.389c-0.617-0.051-1.188-0.359-1.703-0.93c-0.52-0.568-0.83-1.418-0.93-2.557
		c-0.211-1.343-0.211-2.763,0-4.261c0.205-1.496,0.385-2.918,0.539-4.261c0.156-1.343,0.258-2.504,0.313-3.486
		c0.051-0.981-0.076-1.679-0.387-2.093c-0.621-0.824-1.707-1.522-3.258-2.091c-1.549-0.565-2.895-0.438-4.029,0.388
		c-0.52,0.414-1.063,1.652-1.629,3.719c-0.568,2.066-0.906,4.338-1.006,6.816c-0.83,2.479-1.992,4.471-3.492,5.966
		c-1.498,1.5-2.969,2.146-4.416,1.938c-2.379-0.309-4.264-2.35-5.658-6.122c-1.395-3.768-2.354-8.34-2.867-13.712
		c3.1-3.304,5.992-7.179,8.68-11.62c2.686-4.439,5.063-8.986,7.133-13.635c2.893,0.621,5.682,1.139,8.371,1.55
		c2.688,0.414,5.246,0.62,7.674,0.62s4.754-0.257,6.977-0.775c2.223-0.516,4.266-1.445,6.123-2.788
		c2.068-1.445,3.541-3.073,4.42-4.882c0.877-1.805,1.316-3.458,1.316-4.958c0-1.495-0.309-2.711-0.928-3.641
		c-0.623-0.93-1.346-1.239-2.174-0.93c-0.928,0.311-1.963,1.188-3.096,2.634c-1.143,1.448-2.793,2.921-4.965,4.416
		c-2.168,1.5-4.986,2.764-8.449,3.796c-3.465,1.034-7.984,1.344-13.564,0.929c1.342-3.408,2.402-6.661,3.178-9.76
		c0.775-3.1,1.164-5.861,1.164-8.289c0-2.426-0.389-4.338-1.164-5.732s-2.094-2.092-3.951-2.092c-2.07,0-4.086,0.595-6.047,1.781
		c-1.965,1.189-3.799,2.814-5.504,4.881c-1.707,2.067-3.285,4.493-4.73,7.281c-1.449,2.789-2.74,5.787-3.875,8.986
		c-2.895-0.31-5.529-0.438-7.906-0.387c-2.379,0.053-4.676,0.232-6.9,0.543c-2.221,0.311-4.416,0.75-6.588,1.316
		c-2.172,0.568-4.393,1.266-6.666,2.092c-2.998,1.138-4.521,2.17-4.576,3.1c-0.049,0.93,1.424,0.826,4.42-0.311
		c4.551-1.756,9.096-2.813,13.645-3.176c4.547-0.361,9.043-0.284,13.486,0.232c-1.859,5.887-3.154,11.983-3.875,18.282
		c-0.721,6.302-0.775,12.085-0.154,17.353c0.158,1.358,0.373,2.65,0.633,3.886c-0.25,0.25-0.465,0.603-0.633,1.072
		c-0.311,1.034-0.854,2.224-1.627,3.564c-0.775,1.343-1.627,2.584-2.559,3.719c-0.52,0.52-1.086,0.906-1.705,1.162
		c-0.621,0.262-1.215,0.313-1.783,0.156c-0.57-0.156-1.086-0.543-1.551-1.162s-0.752-1.496-0.854-2.635
		c-0.209-1.342-0.232-2.504-0.076-3.487c0.154-0.98,0.309-1.832,0.465-2.557c0.154-0.721,0.256-1.317,0.309-1.78
		c0.051-0.466-0.076-0.904-0.387-1.317c-0.619-0.826-1.705-1.523-3.256-2.092c-1.549-0.568-2.895-0.438-4.031,0.387
		c-0.207,0.208-0.389,0.414-0.543,0.619c-0.152,0.209-0.334,0.52-0.543,0.931c-0.619-1.962-1.703-3.563-3.254-4.804
		c-2.379-1.755-5.193-2.246-8.449-1.472c-3.258,0.774-6.023,2.66-8.295,5.655c-1.52,2.002-2.484,4.074-2.918,6.214
		c-0.74,1.798-1.596,3.378-2.584,4.711c-1.189,1.6-2.48,2.738-3.877,3.408c-1.395,0.674-2.816,0.826-4.262,0.465
		c-1.449-0.361-2.791-1.418-4.031-3.176c-0.137-0.137-0.247-0.293-0.369-0.44v9.451c2.104,0.332,4.191,0.098,6.26-0.724
		c2.48-0.979,4.807-2.709,6.977-5.189c0.736-0.842,1.408-1.734,2.025-2.67c0.559,2.09,1.686,3.809,3.4,5.15
		c1.24,0.928,2.582,1.523,4.029,1.781c1.447,0.26,2.918,0.207,4.42-0.154c1.496-0.361,2.969-1.033,4.42-2.016
		c1.445-0.98,2.734-2.191,3.873-3.641c0.623-0.824,1.033-1.445,1.242-1.859c0.516,2.379,1.549,4.084,3.1,5.113
		c2.893,1.758,5.682,2.299,8.373,1.627c2.684-0.67,4.752-1.885,6.199-3.643c1.344-1.754,2.326-3.225,2.947-4.417
		c0.275-0.53,0.529-1.088,0.764-1.671c0.643,1.781,1.416,3.404,2.336,4.85c2.17,3.408,5.27,5.111,9.303,5.111
		c2.684,0,5.037-0.719,7.053-2.168c2.016-1.445,3.645-3.045,4.883-4.803c0.516,2.582,1.498,4.285,2.945,5.113
		c1.342,0.828,2.738,1.344,4.188,1.549c1.445,0.209,2.813,0.209,4.107,0c1.293-0.205,2.455-0.645,3.49-1.318
		c1.031-0.67,1.908-1.416,2.635-2.246c1.445-1.754,2.48-3.225,3.102-4.417c0.25-0.481,0.479-0.989,0.697-1.51
		c0.934,1.778,2.064,3.394,3.406,4.841c1.912,2.072,4.057,3.592,6.434,4.572c2.377,0.984,4.498,1.111,6.357,0.387
		c1.342-0.514,2.637-1.367,3.877-2.555c1.238-1.188,2.377-2.557,3.41-4.105c1.033-1.551,1.912-3.179,2.633-4.883
		c0.725-1.703,1.242-3.329,1.553-4.88c2.688,0.415,5.193,0.309,7.521-0.311c0.424-0.112,0.813-0.225,1.188-0.332
		c-0.336,1.336-0.578,2.762-0.727,4.283c-0.156,1.604-0.076,3.254,0.234,4.96c0.309,1.703,0.928,3.23,1.857,4.57
		c1.965,2.893,4.213,4.674,6.746,5.344c2.529,0.674,5.037,0.52,7.52-0.465c2.479-0.979,4.805-2.709,6.975-5.189
		c2.172-2.479,3.822-5.37,4.961-8.679C334.23,66.431,334.025,65.629,333.094,65.475z M202.404,69.116
		c-0.83,2.377-2.068,4.286-3.721,5.731c-1.654,1.449-3.203,1.914-4.652,1.395c-1.547-0.516-2.531-1.832-2.943-3.949
		c-0.416-2.117-0.154-4.363,0.775-6.741c0.826-2.375,1.963-3.925,3.41-4.648c1.445-0.721,2.893-0.824,4.34-0.311
		c1.449,0.519,2.455,1.551,3.023,3.1C203.205,65.243,203.127,67.05,202.404,69.116z M236.512,14.267
		c1.342-2.479,2.945-3.975,4.807-4.492c1.24-0.311,2.221-0.103,2.945,0.619c0.723,0.723,1.186,1.781,1.395,3.175
		c0.207,1.396,0.156,3.127-0.154,5.192c-0.311,2.066-0.775,4.236-1.396,6.507c-0.414,0-1.035-0.103-1.859-0.311
		c-3.309-0.619-6.305-1.083-8.992-1.394C234.08,19.844,235.168,16.745,236.512,14.267z M231.396,38.67
		c0.205-4.079,0.619-7.927,1.238-11.544l10.387,1.861c-1.342,3.926-3.021,7.823-5.037,11.696c-2.016,3.874-4.213,7.205-6.588,9.994
		C231.188,46.753,231.188,42.751,231.396,38.67z M312.783,60.284c0.311-2.066,1.033-3.355,2.17-3.873
		c1.035-0.412,1.887-0.284,2.561,0.387c0.67,0.673,1.006,1.626,1.006,2.865c0,1.24-0.412,2.532-1.242,3.875
		c-0.828,1.342-2.219,2.479-4.184,3.407C312.576,64.57,312.473,62.351,312.783,60.284z"/>
	<path fill="#FFFFFF" d="M59.25,99.574H167v-1.828H59.989C59.732,98.359,59.478,98.973,59.25,99.574z"/>
	<path fill="#FFFFFF" d="M166.128,71.673c-0.31-0.671-0.62-1.42-0.93-2.249c0.619-0.112,1.217-0.268,1.802-0.453v-3.507
		c-0.68,0.54-1.481,1.036-2.422,1.48c-0.518-2.375-0.62-4.595-0.31-6.661c0.31-2.066,1.032-3.355,2.17-3.873
		c0.196-0.078,0.379-0.118,0.562-0.158v-4.121c-0.084,0.034-0.167,0.058-0.252,0.094c-1.447,0.62-2.867,1.55-4.262,2.789
		c-1.396,1.239-2.559,2.737-3.489,4.493c-0.519,0.828-0.957,1.937-1.317,3.332c-0.345,1.323-0.591,2.744-0.749,4.252
		c-0.834,2.52-2.21,4.694-4.134,6.517c-1.241,1.238-2.584,2.043-4.031,2.402c-1.448,0.361-2.816,0.463-4.108,0.309
		c-1.294-0.154-2.401-0.516-3.331-1.084c-0.932-0.568-1.551-1.266-1.861-2.092c-0.414-1.031-0.621-2.222-0.621-3.565
		c0-1.341,0.207-2.685,0.621-4.027c0.411-1.342,0.953-2.582,1.627-3.719c0.672-1.136,1.42-1.961,2.248-2.479
		c1.137-0.723,1.42-1.497,0.852-2.324c-0.568-0.826-2.041-0.98-4.416-0.465c-2.38,0.619-4.164,0.853-5.35,0.697
		c-1.19-0.155-1.938-0.388-2.248-0.697c0.722-2.064,1.188-3.976,1.396-5.732c0.205-1.756-0.26-3.15-1.396-4.184
		c-0.621-0.516-1.371-0.722-2.248-0.619c-0.88,0.104-1.783,0.412-2.713,0.928c-0.93,0.519-1.756,1.241-2.48,2.17
		c-0.723,0.93-1.188,2.016-1.396,3.254c-0.206,1.344-0.024,2.738,0.543,4.184c0.568,1.447,1.835,2.583,3.798,3.408
		c-0.31,1.138-0.62,2.324-0.931,3.564c-0.31,1.238-0.62,2.377-0.929,3.407c-0.412,1.345-0.18,2.093,0.696,2.247
		c0.876,0.155,1.575-0.386,2.093-1.627c0.207-0.62,0.489-1.572,0.854-2.867c0.36-1.289,0.748-2.605,1.163-3.95
		c0.825,0.104,1.756,0.183,2.79,0.233c1.032,0.054,2.172-0.025,3.41-0.233c-1.551,1.55-2.844,3.28-3.875,5.19
		c-1.035,1.913-1.783,3.797-2.249,5.655c-0.464,1.862-0.619,3.643-0.464,5.348c0.154,1.703,0.644,3.074,1.472,4.104
		c1.138,1.551,2.738,2.508,4.808,2.867c2.065,0.363,4.263,0.234,6.588-0.387c2.325-0.619,4.65-1.678,6.976-3.176
		c2.327-1.496,4.265-3.277,5.814-5.346c0.504-0.693,0.966-1.375,1.394-2.051c0.34,1.438,0.899,2.748,1.706,3.91
		c1.962,2.893,4.21,4.674,6.744,5.344c0.42,0.112,0.84,0.192,1.259,0.259v-9.451C166.66,72.604,166.356,72.167,166.128,71.673z"/>
	<path fill="#FFFFFF" d="M143.961,40.451c0.721,0,1.368-0.103,1.937-0.31c0.567-0.206,0.905-0.438,1.009-0.697
		c0.102-0.256-0.055-0.516-0.467-0.773s-1.189-0.439-2.323-0.543c-4.137-0.311-8.167-0.284-12.094,0.077
		c-3.929,0.362-7.805,0.956-11.628,1.782c1.757-5.785,2.531-9.426,2.326-10.924c-0.208-1.497-1.965-1.213-5.271,0.852
		c-1.447,0.931-3.619,1.99-6.512,3.177c-2.896,1.188-6.123,2.3-9.689,3.331c-3.565,1.034-7.263,1.887-11.085,2.557
		c-3.824,0.674-7.391,1.008-10.697,1.008c-3.309,0-6.202-0.465-8.682-1.395c-2.48-0.93-4.136-2.479-4.961-4.649
		c-0.828-2.063-0.597-4.052,0.696-5.964c1.292-1.912,3.229-3.692,5.815-5.347c6.924,0.724,13.77,1.473,20.541,2.247
		c6.769,0.775,12.737,1.163,17.907,1.163c5.166,0,9.248-0.567,12.248-1.705c2.996-1.136,4.236-3.254,3.721-6.353
		c-0.415-2.271-1.76-4.08-4.031-5.423c-2.275-1.341-5.145-2.298-8.605-2.866c-3.464-0.567-7.363-0.775-11.705-0.619
		c-4.34,0.154-8.785,0.645-13.333,1.472c-4.549,0.827-9.045,1.962-13.487,3.407c-4.444,1.448-8.476,3.153-12.092,5.113
		c-7.132-0.514-13.825-0.721-20.077-0.619c-6.256,0.105-11.448,0.879-15.581,2.324c-4.65,1.653-8.709,3.873-12.17,6.662
		c-3.465,2.789-6.357,5.914-8.682,9.373c-2.326,3.463-4.031,7.104-5.116,10.924c-1.087,3.822-1.5,7.541-1.241,11.156
		c0.258,3.615,1.214,7.025,2.869,10.226c1.651,3.205,4.03,5.889,7.131,8.057c3.1,2.172,6.047,3.463,8.838,3.873
		c2.79,0.416,5.243,0.311,7.364-0.311c2.115-0.619,3.926-1.572,5.426-2.863c1.497-1.291,2.531-2.504,3.101-3.643
		c0.567-1.135,0.62-2.064,0.155-2.788s-1.473-0.877-3.023-0.466c-3.205,0.929-6.201,0.724-8.993-0.62
		c-2.79-1.34-5.143-3.383-7.053-6.119c-1.914-2.737-3.256-5.967-4.031-9.685s-0.752-7.462,0.077-11.233
		c0.826-3.769,2.583-7.359,5.271-10.768c2.687-3.408,6.563-6.197,11.627-8.367c3.617-1.55,8.01-2.479,13.178-2.789
		c5.168-0.31,10.749-0.256,16.744,0.155c-3.93,2.583-6.822,5.423-8.682,8.522c-1.861,3.098-2.223,6.404-1.085,9.916
		c0.722,2.168,2.636,3.873,5.735,5.113c3.102,1.238,7.184,1.885,12.247,1.936c5.065,0.053,10.956-0.517,17.675-1.704
		c6.718-1.187,14.054-3.124,22.016-5.81c0.101,0.724,0.179,1.42,0.231,2.091c0.051,0.673,0.078,1.37,0.078,2.093
		c-8.787,3.307-16.978,7.695-24.573,13.169c-7.596,5.477-14.367,11.442-20.31,17.896C56.7,81.229,51.688,87.889,47.606,94.756
		c-4.084,6.869-6.926,13.324-8.527,19.367c-1.604,6.043-1.859,11.361-0.775,15.959c1.086,4.594,3.799,7.926,8.141,9.994
		c3.926,1.857,7.854,2.375,11.781,1.547c3.928-0.826,7.752-2.607,11.473-5.344c3.722-2.738,7.313-6.25,10.775-10.537
		c3.461-4.287,6.768-8.961,9.922-14.021c1.748-2.805,3.407-5.703,5.013-8.65h-5.75c-0.223,0.35-0.433,0.713-0.657,1.059
		c-3.566,5.475-7.262,10.018-11.086,13.635c-3.824,3.615-7.598,6.066-11.316,7.359c-3.721,1.293-7.08,0.904-10.078-1.16
		c-2.584-1.758-4.135-4.471-4.65-8.135c-0.519-3.67-0.104-7.852,1.24-12.551c1.342-4.699,3.565-9.736,6.665-15.104
		c3.103-5.369,6.978-10.613,11.63-15.725c4.649-5.116,10.023-9.919,16.122-14.412c6.098-4.493,12.816-8.235,20.154-11.233
		c0,6.301-0.828,12.859-2.48,19.678c-1.654,6.817-3.875,13.431-6.666,19.833c-1.343,3.08-2.779,6.047-4.302,8.91h5.212
		c2.565-5.297,4.908-10.422,6.998-15.34c2.17-5.113,4.053-9.891,5.656-14.333c1.602-4.44,2.869-8.107,3.8-11.001
		c0.619-2.169,1.24-4.206,1.86-6.12c0.619-1.911,1.187-3.691,1.705-5.346C127.217,41.021,135.38,40.142,143.961,40.451z
		 M90.55,15.273c5.22-1.29,10.157-2.038,14.806-2.247c4.652-0.205,8.629,0.132,11.939,1.008c3.305,0.879,5.063,2.506,5.271,4.881
		c0.205,1.757-0.957,2.919-3.49,3.486c-2.533,0.569-5.943,0.801-10.23,0.696c-4.291-0.102-9.252-0.465-14.884-1.083
		c-5.635-0.621-11.449-1.24-17.441-1.861C80.653,18.194,85.331,16.566,90.55,15.273z"/>
</g>
</svg>
