<?xml version="1.0" standalone="no"?><!DOCTYPE svg PUBLIC "-//W3C//DTD SVG 1.1//EN" "http://www.w3.org/Graphics/SVG/1.1/DTD/svg11.dtd"><svg t="1490244462503" class="icon" style="" viewBox="0 0 1148 1024" version="1.1" xmlns="http://www.w3.org/2000/svg" p-id="2382" xmlns:xlink="http://www.w3.org/1999/xlink" width="70" height="60"><defs><style type="text/css"></style></defs><path d="M435.616 848.885c-61.838-65.578-122.677-130.097-184.555-195.722 154.449-145.562 308.374-290.629 463.059-436.417 61.794 65.62 122.76 130.354 184.443 195.863-154.509 145.612-308.283 290.526-462.947 436.275zM720.368 493.628c-3.839-14.619-12.047-23.007-22.721-28.543-9.071-4.701-15.817 1.482-22.094 7.403-36.847 34.754-73.715 69.488-110.595 104.21-46.86 44.118-93.888 88.070-140.387 132.568-4.687 4.486-10.37 14.33-8.47 18.056 4.898 9.606 12.619 18.825 21.429 25.070 8.114 5.757 15.534-2.132 21.687-7.898 22.229-20.847 44.394-41.764 66.571-62.666 61.527-57.992 123.092-115.934 184.447-174.1 4.429-4.193 7.279-10.052 10.134-14.099zM811.213 405.471c-5.233-6.518-10.083-13.609-15.995-19.667-8.592-8.801-17.148-8.988-26.169-1.192-6.903 5.966-13.511 12.285-20.058 18.651-6.005 5.847-9.084 12.676-3.276 20.24 7.337 9.549 11.662 23.449 27.903 21.245 2.141-0.291 4.477-1.453 6.090-2.91 8.471-7.638 16.997-15.252 24.926-23.428 2.715-2.796 3.765-7.211 6.579-12.939zM609.492 243.033c-25.16 23.762-49.789 47.037-74.438 70.284-13.58 12.809-27.5 25.267-40.677 38.478-7.149 7.17-12.546 5.25-18.068-1.185-8.824-10.278-7.574-22.238 3.825-33.395 17.162-16.787 34.489-33.409 51.919-49.919 3.006-2.848 6.877-4.786 10.66-7.355-7.229-7.412-12.141-12.444-17.654-18.095-19.123 18.407-38.023 36.605-56.942 54.789-15.218 14.632-28.496 16.542-38.626 5.589-9.784-10.583-6.817-22.412 7.618-37.611 18.095-19.047 35.37-38.876 52.996-58.367 1.373 0.817 2.743 1.633 4.12 2.452-4.843-5.092-9.681-10.184-15.394-16.19-16.661 16.039-32.8 31.565-48.931 47.101-4.115 3.965-8.123 8.048-12.328 11.912-12.154 11.166-25.132 12.099-34.418 2.596-9.267-9.492-8.123-22.984 3.441-34.345 15.493-15.222 31.259-30.17 46.963-45.177 4.655-4.446 9.498-8.689 15.558-14.211-6.249-5.9-11.406-10.77-17.203-16.242-19.088 18.207-37.497 35.772-55.908 53.331-3.029 2.892-5.916 5.969-9.151 8.613-9.642 7.874-22.060 7.767-30.165-0.062-8.48-8.192-9.029-21.111-0.595-30.982 5.17-6.055 11.569-11.049 16.966-16.933 14.673-16.003 29.106-32.221 43.98-48.736-9.793-12.555-31.906-13.279-48.318 2.273-30.157 28.577-59.98 57.5-89.921 86.302-15.657 15.057-31.398 30.030-46.865 45.277-19.124 18.855-19.66 38.822-1.201 58.077 49.823 51.987 99.866 103.761 149.814 155.629 3.159 3.283 6.259 6.62 10.258 10.846-14.298 13.573-28.269 26.832-42.084 39.949-12.502-12.090-24.78-23.32-36.325-35.255-56.713-58.612-113.253-117.394-169.802-176.166-17.684-18.381-17.457-33.25 1.091-51.175 76.172-73.621 152.42-147.167 228.718-220.661 15.773-15.195 32.608-15.526 47.291-0.343 68.875 71.217 137.532 142.649 206.246 214.028 1.036 1.083 1.788 2.434 3.55 4.877zM855.198 582.364c-29.758 28.792-58.475 56.597-87.212 84.38-6.572 6.353-13.038 12.841-19.877 18.901-12.939 11.461-33.721 6.033-37.536-10.385-1.167-5.008 0.268-13.043 3.713-16.345 50.627-48.492 101.792-96.416 152.861-144.445 0.778-0.727 1.993-0.997 3.596-1.768 28.52 29.515 57.095 59.058 85.643 88.633 33.081 34.267 66.123 68.568 99.195 102.837 16.942 17.56 16.794 33.658-0.738 50.566-75.964 73.262-151.965 146.491-227.965 219.714-18.221 17.56-33.301 17.314-51.15-1.135-61.458-63.531-122.831-127.139-184.214-190.738-1.274-1.322-2.279-2.896-3.825-4.893 14.307-13.525 28.333-26.772 38.636-36.509 22.282 20.138 44.449 38.833 65.043 59.122 28.756 28.327 56.203 57.983 84.479 86.805 16.688 17.016 37.394 17.318 54.67 0.75 45.936-44.033 91.726-88.219 137.389-132.533 15.611-15.151 18.082-35.806 3.72-51.298-37.776-40.743-76.756-80.365-116.43-121.66zM993.531 323.898c-62.455-66.31-123.257-130.868-185.14-196.572 27.564-25.221 53.425-51.106 81.692-74.028 21.822-17.697 53.856-12.541 74.639 9.16 34.518 36.047 68.795 72.333 102.677 108.98 20.923 22.63 24.183 54.014 5.065 74.971-24.535 26.898-51.907 51.209-78.933 77.49zM1033.592 212.576c-37.685-39.991-74.58-79.144-111.864-118.714-13.241 12.559-25.517 24.201-38.131 36.163 37.776 40.055 74.676 79.178 111.816 118.56 13.079-12.337 24.93-23.515 38.18-36.010zM225.225 678.375c61.7 65.404 122.193 129.534 184.040 195.094-10.576 3.379-19.463 6.244-28.362 9.052-66.427 20.964-132.854 41.919-199.285 62.858-2.176 0.689-4.44 1.091-6.618 1.773-12.193 3.825-23.551 2.746-32.684-6.863-9.601-10.102-9.132-21.966-4.504-34.155 7.975-20.992 15.947-41.983 23.963-62.959 20.111-52.621 40.24-105.237 60.378-157.853 0.663-1.734 1.498-3.406 3.072-6.948zM345 856.758c-36.195-38.38-70.959-75.248-107.186-113.665-11.701 30.645-22.774 59.239-33.317 88.027-0.826 2.246 1.29 6.515 3.29 8.695 12.324 13.448 25.276 26.326 37.433 39.913 4.528 5.058 8.771 6.193 14.936 4.111 13.685-4.621 27.498-8.856 41.258-13.239 13.972-4.445 27.944-8.873 43.587-13.843zM735.336 196.912c17.983-16.956 35.333-33.313 53.577-50.512 61.636 65.395 122.66 130.136 184.481 195.725-17.886 16.842-35.198 33.15-53.563 50.445-61.739-65.475-122.765-130.195-184.495-195.659zM765.478 750.038c-0.657-40.69 31.872-73.736 73.482-74.658 40.675-0.904 74.548 32.444 75.383 74.198 0.794 39.874-32.88 74.010-73.814 74.818-40.75 0.803-74.376-32.515-75.051-74.358zM839.082 779.703c16.613 0.206 30.204-12.707 30.579-29.037 0.393-17.116-12.873-30.799-29.933-30.87-16.421-0.071-29.772 13.195-29.927 29.74-0.161 16.663 12.742 29.962 29.28 30.167z" p-id="2383" fill="#303342"></path></svg>