<?xml version="1.0" encoding="utf-8"?>
<!-- Generator: Adobe Illustrator 16.0.0, SVG Export Plug-In . SVG Version: 6.00 Build 0)  -->
<!DOCTYPE svg PUBLIC "-//W3C//DTD SVG 1.1//EN" "http://www.w3.org/Graphics/SVG/1.1/DTD/svg11.dtd">
<svg version="1.1" id="圖層_1" xmlns="http://www.w3.org/2000/svg" xmlns:xlink="http://www.w3.org/1999/xlink" x="0px" y="0px"
	 width="334px" height="142px" viewBox="0 0 334 142" enable-background="new 0 0 334 142" xml:space="preserve">
<path fill="#fff" d="M229.043,105.234c-0.295-0.125-0.358-0.21-0.358-0.61c0-0.971,0.082-2.09,0.104-2.385
	c0-0.274,0.084-0.465,0.234-0.465c0.168,0,0.188,0.17,0.188,0.296c0,0.231,0.063,0.611,0.169,0.929
	c0.4,1.33,1.793,1.772,2.953,1.772c1.604,0,2.575-1.014,2.575-2.278c0-0.78-0.19-1.562-1.836-2.533l-1.077-0.633
	c-2.193-1.286-2.91-2.489-2.91-4.071c0-2.194,2.109-3.608,4.683-3.608c1.203,0,2.154,0.169,2.638,0.296
	c0.169,0.041,0.254,0.104,0.254,0.232c0,0.231-0.063,0.737-0.063,2.151c0,0.379-0.085,0.57-0.231,0.57
	c-0.127,0-0.19-0.106-0.19-0.316c0-0.169-0.084-0.718-0.486-1.183c-0.273-0.337-0.864-0.844-2.067-0.844
	c-1.33,0-2.531,0.696-2.531,1.919c0,0.803,0.295,1.436,1.962,2.364l0.759,0.423c2.449,1.35,3.208,2.722,3.208,4.345
	c0,1.33-0.507,2.405-1.857,3.355c-0.885,0.634-2.109,0.739-3.102,0.739C230.983,105.7,229.843,105.595,229.043,105.234"/>
<path fill="#fff" d="M247.707,92.998l-2.763,0.063c-1.076,0.021-1.52,0.147-1.793,0.548c-0.19,0.253-0.274,0.484-0.316,0.612
	c-0.045,0.147-0.084,0.231-0.211,0.231c-0.128,0-0.171-0.104-0.171-0.295c0-0.296,0.358-2.025,0.402-2.174
	c0.043-0.231,0.105-0.337,0.212-0.337c0.146,0,0.337,0.147,0.801,0.212c0.55,0.062,1.245,0.083,1.858,0.083h7.531
	c0.591,0,0.991-0.042,1.265-0.083c0.295-0.043,0.442-0.085,0.508-0.085c0.127,0,0.147,0.106,0.147,0.379
	c0,0.38-0.042,1.709-0.042,2.174c-0.021,0.189-0.063,0.295-0.171,0.295c-0.147,0-0.188-0.084-0.208-0.358l-0.021-0.19
	c-0.044-0.464-0.529-1.012-2.195-1.032l-2.342-0.043v7.257c0,1.646,0.021,3.061,0.105,3.841c0.063,0.507,0.169,0.844,0.716,0.929
	c0.254,0.043,0.677,0.063,0.951,0.063c0.211,0,0.294,0.105,0.294,0.188c0,0.128-0.146,0.191-0.357,0.191
	c-1.225,0-2.47-0.063-2.997-0.063c-0.421,0-1.688,0.063-2.425,0.063c-0.234,0-0.358-0.063-0.358-0.191
	c0-0.083,0.063-0.188,0.295-0.188c0.273,0,0.506-0.021,0.652-0.063c0.38-0.085,0.485-0.422,0.551-0.95
	c0.082-0.759,0.082-2.173,0.082-3.819V92.998z"/>
<path fill="#fff" d="M261.584,97.091c0-2.722,0.021-3.228-0.021-3.798c-0.043-0.633-0.212-0.802-0.801-0.971
	c-0.148-0.041-0.464-0.063-0.72-0.063c-0.21,0-0.315-0.063-0.315-0.19c0-0.126,0.126-0.169,0.402-0.169
	c0.99,0,2.235,0.043,2.784,0.043c0.466,0,1.709-0.043,2.385-0.043c0.274,0,0.4,0.043,0.4,0.169c0,0.127-0.104,0.19-0.297,0.19
	c-0.208,0-0.316,0.021-0.548,0.063c-0.485,0.085-0.632,0.338-0.674,0.971c-0.043,0.57-0.043,1.076-0.043,3.798v2.512
	c0,2.616,0.507,3.628,1.415,4.346c0.821,0.653,1.709,0.718,2.341,0.718c0.804,0,1.751-0.231,2.488-0.95
	c1.035-0.97,1.077-2.531,1.077-4.367v-2.258c0-2.722-0.021-3.228-0.042-3.798c-0.042-0.611-0.19-0.802-0.779-0.971
	c-0.148-0.041-0.466-0.063-0.678-0.063c-0.21,0-0.315-0.063-0.315-0.19c0-0.126,0.127-0.169,0.379-0.169
	c0.951,0,2.194,0.043,2.216,0.043c0.213,0,1.456-0.043,2.174-0.043c0.254,0,0.38,0.043,0.38,0.169c0,0.127-0.104,0.19-0.316,0.19
	c-0.21,0-0.315,0.021-0.548,0.063c-0.508,0.085-0.634,0.338-0.676,0.971c-0.021,0.57-0.042,1.076-0.042,3.798v1.92
	c0,2.005-0.212,4.114-1.772,5.402c-1.31,1.097-2.722,1.287-3.925,1.287c-0.972,0-2.891-0.043-4.241-1.225
	c-0.949-0.822-1.688-2.152-1.688-4.748V97.091z"/>
<path fill="#fff" d="M281.791,97.091c0-2.722,0-3.229-0.021-3.798c-0.046-0.611-0.212-0.802-0.804-0.971
	c-0.147-0.041-0.463-0.063-0.737-0.063c-0.189,0-0.316-0.063-0.316-0.19s0.147-0.169,0.422-0.169c0.97,0,2.151,0.042,2.679,0.042
	c0.571,0,1.898-0.042,3.018-0.042c2.319,0,5.443,0,7.468,2.048c0.93,0.926,1.754,2.425,1.754,4.557c0,2.257-0.972,3.966-2.024,5.001
	c-0.846,0.844-2.808,2.109-6.226,2.109c-0.677,0-1.478-0.063-2.217-0.105c-0.738-0.063-1.413-0.105-1.878-0.105
	c-0.212,0-0.612,0.021-1.054,0.021c-0.445,0.021-0.909,0.042-1.288,0.042c-0.231,0-0.358-0.063-0.358-0.191
	c0-0.083,0.063-0.188,0.296-0.188c0.273,0,0.483-0.021,0.652-0.063c0.382-0.085,0.487-0.422,0.549-0.95
	c0.086-0.759,0.086-2.173,0.086-3.819V97.091z M284.28,99.074c0,1.898,0.021,3.271,0.042,3.63c0.021,0.441,0.063,1.075,0.21,1.266
	c0.232,0.338,0.972,0.717,2.429,0.717c1.688,0,2.931-0.294,4.05-1.224c1.204-0.992,1.583-2.595,1.583-4.452
	c0-2.278-0.908-3.755-1.73-4.473c-1.709-1.519-3.734-1.71-5.19-1.71c-0.379,0-0.992,0.043-1.141,0.127
	c-0.168,0.064-0.231,0.148-0.231,0.359c-0.021,0.612-0.021,2.088-0.021,3.501V99.074z"/>
<path fill="#fff" d="M302.901,97.091c0-2.722,0-3.228-0.021-3.798c-0.043-0.611-0.231-0.822-0.632-0.949
	c-0.212-0.063-0.444-0.084-0.677-0.084c-0.189,0-0.295-0.042-0.295-0.212c0-0.104,0.147-0.147,0.442-0.147
	c0.697,0,1.962,0.043,2.49,0.043c0.464,0,1.667-0.043,2.385-0.043c0.231,0,0.379,0.043,0.379,0.147c0,0.17-0.105,0.212-0.296,0.212
	c-0.189,0-0.337,0.021-0.547,0.063c-0.508,0.085-0.656,0.338-0.698,0.971c-0.042,0.57-0.042,1.076-0.042,3.798v3.165
	c0,1.73,0,3.165,0.084,3.924c0.065,0.486,0.19,0.76,0.74,0.845c0.253,0.042,0.674,0.063,0.948,0.063
	c0.211,0,0.297,0.107,0.297,0.189c0,0.128-0.149,0.191-0.36,0.191c-1.223,0-2.489-0.063-2.994-0.063
	c-0.424,0-1.688,0.063-2.428,0.063c-0.232,0-0.358-0.063-0.358-0.191c0-0.082,0.063-0.189,0.295-0.189
	c0.273,0,0.486-0.021,0.655-0.063c0.38-0.085,0.485-0.338,0.548-0.865c0.084-0.738,0.084-2.173,0.084-3.903V97.091z"/>
<path fill="#fff" d="M313.047,98.674c0-3.061,2.151-7.026,7.786-7.026c4.683,0,7.596,2.595,7.596,6.71
	c0,4.113-2.997,7.343-7.787,7.343C315.24,105.7,313.047,101.859,313.047,98.674 M325.664,99.011c0-3.967-2.385-6.414-5.381-6.414
	c-2.067,0-4.492,1.097-4.492,5.528c0,3.693,2.109,6.604,5.611,6.604C322.711,104.729,325.664,104.116,325.664,99.011"/>
<g>
	<defs>
		<path id="SVGID_1_" d="M59.434,97.886c-0.257,0.614-0.512,1.227-0.74,1.829h160.511v-1.829H59.434z"/>
	</defs>
	<clipPath id="SVGID_2_">
		<use xlink:href="#SVGID_1_"  overflow="visible"/>
	</clipPath>
	<rect x="58.125" y="96.5" clip-path="url(#SVGID_2_)" fill="#fff" width="112" height="4.25"/>
</g>
<g>
	<path fill="#fff" d="M260.915,38.267c-1.654-1.031-3.204-1.497-4.651-1.396c-0.828,0-1.653,0.388-2.479,1.162
		c-0.828,0.776-1.576,1.654-2.248,2.635c-0.673,0.982-1.216,1.99-1.627,3.021c-0.416,1.034-0.57,1.859-0.465,2.479
		c0.101,0.619,0.333,1.266,0.697,1.936c0.36,0.673,0.851,1.24,1.472,1.705c0.621,0.465,1.343,0.774,2.171,0.929
		c0.826,0.155,1.651-0.025,2.479-0.543c0.311-0.101,0.801-0.464,1.473-1.084c0.673-0.619,1.396-1.317,2.172-2.091
		c0.774-0.775,1.445-1.601,2.015-2.479c0.567-0.876,0.955-1.677,1.163-2.402C263.293,40.59,262.567,39.3,260.915,38.267"/>
	<path fill="#fff" d="M332.537,65.614c-0.93-0.156-1.603,0.337-2.015,1.471c-0.829,2.273-1.835,4.211-3.023,5.812
		c-1.188,1.6-2.481,2.737-3.878,3.407c-1.394,0.674-2.815,0.827-4.263,0.465c-1.448-0.36-2.788-1.418-4.03-3.176
		c-0.519-0.516-0.932-1.11-1.24-1.781c-0.31-0.67-0.62-1.419-0.931-2.247c2.274-0.411,4.314-1.317,6.126-2.712
		c1.807-1.395,3.178-2.943,4.106-4.648c0.932-1.704,1.368-3.409,1.319-5.113c-0.054-1.704-0.752-3.123-2.092-4.261
		c-1.036-0.826-2.25-1.263-3.645-1.318c-1.396-0.05-2.817,0.233-4.264,0.853c-1.449,0.62-2.868,1.55-4.263,2.789
		c-1.368,1.214-2.507,2.68-3.428,4.388c-0.501,0.16-1.036,0.323-1.61,0.493c-2.273,0.671-4.961,0.851-8.062,0.541
		c0-1.239-0.261-2.27-0.775-3.098c-0.828-1.031-1.809-1.782-2.944-2.247c-1.139-0.465-2.226-0.748-3.259-0.853h-0.619
		c-1.448,0.104-2.584,0.519-3.41,1.239c-0.828,0.725-1.034,1.604-0.619,2.634c0.206,0.621,0.643,1.294,1.317,2.015
		c0.669,0.724,1.42,1.342,2.248,1.858c0.205,1.345,0.231,2.817,0.077,4.417c-0.154,1.603-0.465,3.124-0.932,4.57
		c-0.465,1.447-1.06,2.662-1.782,3.641c-0.723,0.981-1.448,1.473-2.171,1.473c-1.757,0.207-3.205-0.466-4.34-2.015
		c-1.139-1.551-1.966-3.41-2.479-5.578c-0.52-2.169-0.803-4.364-0.854-6.584c-0.054-2.221,0.077-3.898,0.388-5.036
		c0.412-1.446,0.206-2.325-0.621-2.634c-0.828-0.31-1.858-0.283-3.101,0.077c-1.239,0.363-2.456,1.034-3.644,2.015
		c-1.188,0.983-1.937,2.091-2.247,3.331c-0.586,2.269-0.566,4.52,0.042,6.753c-0.074,0.159-0.14,0.33-0.192,0.529
		c-0.416,1.034-0.983,2.223-1.707,3.564c-0.725,1.342-1.55,2.583-2.479,3.718c-0.521,0.519-1.086,0.928-1.706,1.238
		c-0.621,0.311-1.24,0.443-1.861,0.389c-0.618-0.051-1.188-0.36-1.704-0.93c-0.519-0.568-0.829-1.418-0.93-2.557
		c-0.21-1.342-0.21-2.762,0-4.261c0.205-1.496,0.386-2.917,0.539-4.26c0.156-1.343,0.259-2.504,0.313-3.486
		c0.052-0.981-0.076-1.678-0.387-2.092c-0.621-0.825-1.706-1.523-3.257-2.091c-1.55-0.566-2.896-0.438-4.029,0.387
		c-0.521,0.414-1.063,1.653-1.63,3.719c-0.567,2.067-0.906,4.338-1.006,6.817c-0.829,2.479-1.992,4.47-3.491,5.965
		c-1.498,1.499-2.97,2.146-4.417,1.937c-2.379-0.309-4.263-2.35-5.657-6.12c-1.396-3.768-2.354-8.34-2.868-13.712
		c3.1-3.304,5.992-7.178,8.68-11.62c2.687-4.44,5.063-8.986,7.133-13.635c2.893,0.62,5.683,1.138,8.372,1.549
		c2.687,0.414,5.245,0.62,7.674,0.62c2.428,0,4.753-0.257,6.976-0.776c2.223-0.515,4.266-1.444,6.123-2.788
		c2.069-1.445,3.541-3.073,4.42-4.881c0.878-1.806,1.316-3.458,1.316-4.958c0-1.495-0.309-2.711-0.928-3.641
		c-0.622-0.93-1.346-1.239-2.173-0.93c-0.929,0.311-1.963,1.189-3.097,2.634c-1.142,1.448-2.792,2.92-4.965,4.416
		c-2.168,1.5-4.985,2.764-8.448,3.796c-3.465,1.034-7.984,1.344-13.564,0.929c1.341-3.408,2.402-6.662,3.178-9.761
		c0.774-3.099,1.163-5.861,1.163-8.289c0-2.426-0.389-4.338-1.163-5.733c-0.775-1.395-2.094-2.092-3.952-2.092
		c-2.069,0-4.086,0.595-6.047,1.782c-1.965,1.188-3.799,2.814-5.504,4.88c-1.706,2.068-3.284,4.494-4.729,7.282
		c-1.449,2.789-2.741,5.787-3.875,8.986c-2.896-0.31-5.529-0.438-7.907-0.387c-2.378,0.053-4.675,0.232-6.899,0.542
		c-2.221,0.311-4.417,0.75-6.589,1.317c-2.171,0.568-4.392,1.266-6.665,2.092c-2.998,1.138-4.522,2.169-4.576,3.1
		c-0.049,0.929,1.424,0.827,4.42-0.31c4.55-1.756,9.096-2.814,13.644-3.177c4.547-0.361,9.044-0.284,13.487,0.232
		c-1.86,5.887-3.154,11.984-3.875,18.283c-0.722,6.302-0.775,12.085-0.154,17.353c0.158,1.358,0.372,2.651,0.633,3.886
		c-0.25,0.25-0.465,0.603-0.633,1.072c-0.311,1.034-0.854,2.223-1.628,3.564c-0.775,1.342-1.627,2.583-2.559,3.718
		c-0.519,0.519-1.085,0.906-1.704,1.162c-0.621,0.261-1.216,0.312-1.784,0.155c-0.569-0.155-1.086-0.543-1.55-1.162
		c-0.465-0.619-0.752-1.496-0.854-2.634c-0.208-1.343-0.231-2.504-0.075-3.487c0.154-0.98,0.309-1.832,0.465-2.557
		c0.154-0.721,0.255-1.317,0.308-1.78c0.052-0.466-0.076-0.904-0.387-1.317c-0.619-0.826-1.704-1.523-3.255-2.092
		c-1.55-0.568-2.896-0.438-4.031,0.386c-0.208,0.208-0.389,0.414-0.543,0.62c-0.153,0.209-0.335,0.519-0.543,0.93
		c-0.619-1.962-1.704-3.563-3.255-4.804c-2.379-1.754-5.192-2.246-8.449-1.471s-6.023,2.66-8.295,5.655
		c-1.519,2.002-2.483,4.074-2.918,6.214c-0.74,1.798-1.596,3.377-2.583,4.71c-1.189,1.6-2.48,2.737-3.877,3.407
		c-1.395,0.674-2.816,0.827-4.263,0.465c-1.449-0.36-2.791-1.418-4.031-3.176c-0.519-0.516-0.931-1.11-1.241-1.781
		c-0.31-0.67-0.62-1.419-0.93-2.247c2.272-0.411,4.315-1.317,6.125-2.712c1.807-1.395,3.177-2.943,4.107-4.648
		c0.931-1.704,1.368-3.409,1.318-5.113c-0.054-1.704-0.752-3.123-2.093-4.261c-1.035-0.826-2.248-1.263-3.644-1.318
		c-1.396-0.05-2.818,0.233-4.264,0.853c-1.448,0.62-2.868,1.55-4.263,2.789c-1.396,1.24-2.559,2.738-3.489,4.494
		c-0.519,0.828-0.957,1.936-1.318,3.331c-0.344,1.324-0.59,2.745-0.749,4.252c-0.834,2.52-2.209,4.693-4.134,6.515
		c-1.241,1.239-2.584,2.043-4.031,2.403c-1.448,0.36-2.816,0.463-4.108,0.309c-1.293-0.155-2.402-0.516-3.332-1.084
		c-0.932-0.568-1.551-1.266-1.861-2.093c-0.414-1.031-0.62-2.22-0.62-3.563c0-1.341,0.206-2.685,0.62-4.028
		c0.412-1.341,0.954-2.582,1.628-3.719c0.671-1.136,1.419-1.96,2.247-2.479c1.137-0.722,1.42-1.497,0.853-2.324
		c-0.568-0.825-2.041-0.98-4.417-0.465c-2.379,0.62-4.163,0.853-5.349,0.697c-1.191-0.155-1.939-0.387-2.249-0.697
		c0.722-2.064,1.188-3.975,1.396-5.732c0.205-1.756-0.26-3.15-1.396-4.184c-0.621-0.515-1.37-0.721-2.248-0.619
		c-0.88,0.104-1.783,0.413-2.712,0.929c-0.931,0.518-1.757,1.241-2.481,2.17c-0.722,0.929-1.187,2.015-1.396,3.253
		c-0.206,1.344-0.025,2.739,0.543,4.184c0.568,1.448,1.835,2.583,3.798,3.409c-0.31,1.138-0.621,2.324-0.931,3.564
		c-0.31,1.239-0.62,2.377-0.929,3.408c-0.412,1.344-0.18,2.092,0.697,2.247c0.876,0.156,1.575-0.385,2.093-1.626
		c0.206-0.62,0.489-1.573,0.853-2.867c0.361-1.29,0.749-2.606,1.164-3.951c0.825,0.104,1.756,0.182,2.79,0.233
		c1.032,0.054,2.171-0.025,3.411-0.233c-1.551,1.549-2.844,3.28-3.875,5.19c-1.035,1.914-1.784,3.797-2.249,5.655
		c-0.464,1.861-0.619,3.643-0.464,5.347s0.644,3.075,1.472,4.104c1.137,1.55,2.738,2.508,4.807,2.866
		c2.066,0.363,4.263,0.234,6.589-0.387c2.325-0.619,4.65-1.677,6.975-3.175c2.327-1.496,4.265-3.278,5.814-5.347
		c0.504-0.692,0.966-1.375,1.394-2.05c0.34,1.437,0.899,2.748,1.706,3.91c1.962,2.893,4.21,4.674,6.744,5.344
		c2.532,0.673,5.039,0.519,7.519-0.465c2.48-0.979,4.806-2.71,6.977-5.189c0.736-0.842,1.407-1.734,2.025-2.67
		c0.559,2.089,1.686,3.809,3.399,5.149c1.24,0.929,2.582,1.524,4.03,1.782c1.447,0.259,2.918,0.207,4.419-0.154
		c1.497-0.362,2.97-1.033,4.42-2.016c1.445-0.981,2.735-2.192,3.873-3.642c0.623-0.824,1.034-1.444,1.242-1.859
		c0.516,2.379,1.55,4.084,3.101,5.113c2.892,1.759,5.682,2.3,8.372,1.628c2.684-0.671,4.753-1.885,6.2-3.643
		c1.343-1.754,2.325-3.226,2.946-4.416c0.276-0.53,0.529-1.089,0.764-1.672c0.643,1.781,1.416,3.404,2.337,4.848
		c2.169,3.408,5.27,5.112,9.302,5.112c2.685,0,5.037-0.72,7.053-2.169c2.017-1.445,3.645-3.044,4.884-4.803
		c0.516,2.582,1.497,4.286,2.944,5.113c1.343,0.829,2.738,1.345,4.188,1.549c1.444,0.21,2.813,0.21,4.106,0
		c1.293-0.204,2.456-0.644,3.49-1.317c1.032-0.67,1.909-1.417,2.636-2.246c1.445-1.754,2.479-3.226,3.101-4.416
		c0.251-0.481,0.479-0.989,0.697-1.511c0.934,1.778,2.065,3.394,3.407,4.841c1.912,2.071,4.056,3.592,6.434,4.572
		c2.377,0.983,4.497,1.111,6.357,0.387c1.341-0.514,2.636-1.367,3.876-2.556c1.239-1.188,2.377-2.557,3.41-4.105
		c1.033-1.55,1.913-3.177,2.634-4.881c0.725-1.703,1.242-3.33,1.553-4.88c2.688,0.415,5.192,0.309,7.521-0.311
		c0.424-0.112,0.813-0.224,1.188-0.332c-0.336,1.336-0.577,2.762-0.726,4.284c-0.156,1.604-0.077,3.254,0.233,4.958
		c0.309,1.704,0.929,3.23,1.858,4.571c1.964,2.893,4.212,4.674,6.745,5.344c2.53,0.673,5.038,0.519,7.52-0.465
		c2.479-0.979,4.805-2.71,6.976-5.189c2.172-2.479,3.822-5.37,4.96-8.678C333.674,66.57,333.469,65.768,332.537,65.614
		 M163.712,60.423c0.31-2.065,1.032-3.355,2.17-3.873c1.032-0.412,1.885-0.284,2.558,0.387c0.671,0.673,1.009,1.626,1.009,2.866
		c0,1.239-0.415,2.532-1.241,3.874c-0.829,1.343-2.224,2.479-4.186,3.408C163.504,64.709,163.402,62.49,163.712,60.423
		 M201.848,69.255c-0.829,2.376-2.068,4.286-3.72,5.731c-1.654,1.448-3.204,1.913-4.652,1.395c-1.548-0.517-2.531-1.833-2.944-3.95
		c-0.415-2.116-0.154-4.362,0.775-6.74c0.827-2.375,1.963-3.925,3.411-4.649c1.445-0.72,2.893-0.824,4.34-0.31
		c1.448,0.519,2.454,1.55,3.023,3.1C202.648,65.382,202.571,67.189,201.848,69.255 M235.955,14.406
		c1.342-2.479,2.946-3.975,4.807-4.492c1.24-0.311,2.222-0.103,2.946,0.62c0.722,0.723,1.186,1.781,1.394,3.174
		c0.207,1.395,0.157,3.127-0.153,5.192c-0.311,2.066-0.775,4.236-1.396,6.507c-0.414,0-1.035-0.102-1.86-0.311
		c-3.309-0.619-6.305-1.083-8.991-1.394C233.524,19.983,234.611,16.885,235.955,14.406 M230.84,38.809
		c0.205-4.08,0.62-7.926,1.239-11.543l10.387,1.86c-1.343,3.926-3.021,7.824-5.038,11.697c-2.015,3.874-4.212,7.205-6.588,9.994
		C230.632,46.892,230.632,42.89,230.84,38.809 M312.228,60.423c0.311-2.065,1.032-3.355,2.169-3.873
		c1.035-0.412,1.887-0.284,2.562,0.387c0.67,0.673,1.006,1.626,1.006,2.866c0,1.239-0.413,2.532-1.242,3.874
		c-0.828,1.343-2.22,2.479-4.184,3.408C312.02,64.709,311.917,62.49,312.228,60.423"/>
	<path fill="#fff" d="M143.405,40.59c0.721,0,1.368-0.102,1.937-0.31c0.567-0.206,0.905-0.438,1.009-0.697
		c0.101-0.256-0.055-0.515-0.467-0.774c-0.413-0.257-1.189-0.439-2.324-0.543c-4.137-0.311-8.167-0.284-12.094,0.078
		c-3.929,0.363-7.805,0.956-11.627,1.782c1.756-5.785,2.531-9.425,2.326-10.924c-0.208-1.497-1.965-1.213-5.271,0.852
		c-1.448,0.93-3.619,1.99-6.513,3.176c-2.895,1.188-6.123,2.3-9.689,3.331c-3.565,1.035-7.263,1.887-11.084,2.557
		c-3.825,0.673-7.392,1.008-10.698,1.008c-3.309,0-6.202-0.465-8.682-1.395c-2.48-0.93-4.136-2.479-4.96-4.649
		c-0.829-2.064-0.597-4.052,0.696-5.964c1.292-1.911,3.23-3.692,5.815-5.346c6.923,0.724,13.77,1.473,20.541,2.247
		c6.769,0.775,12.737,1.163,17.907,1.163c5.167,0,9.249-0.567,12.248-1.705c2.996-1.135,4.237-3.254,3.721-6.353
		c-0.415-2.271-1.759-4.08-4.031-5.423c-2.275-1.341-5.144-2.297-8.605-2.867c-3.464-0.567-7.364-0.774-11.706-0.619
		c-4.34,0.155-8.785,0.645-13.333,1.472c-4.549,0.828-9.045,1.962-13.488,3.408c-4.445,1.448-8.476,3.153-12.092,5.113
		c-7.132-0.515-13.825-0.721-20.078-0.619c-6.255,0.104-11.448,0.878-15.581,2.324c-4.651,1.653-8.708,3.873-12.169,6.662
		c-3.465,2.789-6.357,5.915-8.682,9.374c-2.326,3.462-4.031,7.104-5.116,10.924c-1.086,3.822-1.5,7.541-1.241,11.156
		c0.257,3.615,1.213,7.025,2.869,10.226c1.651,3.204,4.03,5.887,7.13,8.055c3.101,2.172,6.047,3.463,8.838,3.874
		c2.79,0.415,5.244,0.311,7.364-0.311c2.116-0.619,3.926-1.572,5.426-2.864c1.498-1.29,2.532-2.504,3.101-3.642
		c0.567-1.136,0.62-2.065,0.155-2.788c-0.465-0.723-1.473-0.877-3.023-0.466c-3.205,0.929-6.202,0.723-8.993-0.62
		c-2.791-1.34-5.143-3.382-7.054-6.12c-1.913-2.737-3.255-5.966-4.031-9.684c-0.775-3.718-0.752-7.462,0.077-11.233
		c0.826-3.769,2.583-7.359,5.271-10.769c2.686-3.408,6.563-6.197,11.627-8.366c3.617-1.55,8.009-2.479,13.177-2.789
		c5.168-0.31,10.749-0.257,16.745,0.155c-3.93,2.583-6.823,5.423-8.683,8.522c-1.86,3.098-2.223,6.405-1.084,9.917
		c0.722,2.168,2.636,3.873,5.735,5.113c3.101,1.238,7.183,1.885,12.247,1.937c5.065,0.052,10.956-0.517,17.675-1.705
		c6.717-1.187,14.053-3.124,22.015-5.81c0.101,0.724,0.179,1.42,0.232,2.091c0.051,0.673,0.077,1.37,0.077,2.092
		c-8.786,3.307-16.977,7.696-24.573,13.169c-7.596,5.477-14.368,11.442-20.31,17.896c-5.944,6.457-10.956,13.117-15.038,19.985
		c-4.084,6.869-6.926,13.325-8.527,19.367c-1.604,6.043-1.859,11.361-0.775,15.959c1.085,4.595,3.798,7.927,8.14,9.995
		c3.927,1.857,7.854,2.374,11.782,1.547c3.927-0.827,7.751-2.607,11.473-5.345s7.312-6.25,10.775-10.536
		c3.461-4.287,6.768-8.962,9.922-14.022c1.748-2.805,3.407-5.702,5.012-8.65h-5.75c-0.223,0.35-0.432,0.713-0.657,1.06
		c-3.566,5.475-7.262,10.017-11.085,13.635c-3.825,3.615-7.598,6.066-11.317,7.358c-3.721,1.293-7.08,0.905-10.078-1.16
		c-2.583-1.758-4.135-4.47-4.65-8.134c-0.519-3.67-0.104-7.853,1.24-12.551c1.342-4.699,3.565-9.736,6.665-15.106
		c3.102-5.368,6.977-10.613,11.629-15.725c4.65-5.115,10.023-9.917,16.123-14.411c6.098-4.494,12.816-8.236,20.155-11.233
		c0,6.301-0.829,12.86-2.481,19.678c-1.653,6.815-3.875,13.429-6.666,19.831c-1.343,3.081-2.779,6.048-4.301,8.913h5.211
		c2.566-5.299,4.909-10.424,6.998-15.342c2.17-5.113,4.053-9.89,5.657-14.333c1.602-4.44,2.869-8.108,3.8-11.001
		c0.619-2.169,1.24-4.207,1.86-6.12c0.62-1.912,1.187-3.692,1.705-5.346C126.66,41.16,134.824,40.281,143.405,40.59 M89.994,15.413
		c5.22-1.29,10.156-2.038,14.806-2.247c4.651-0.206,8.629,0.131,11.939,1.007c3.305,0.879,5.062,2.506,5.271,4.881
		c0.205,1.757-0.957,2.919-3.489,3.486c-2.534,0.569-5.944,0.801-10.231,0.696c-4.29-0.102-9.251-0.465-14.883-1.083
		c-5.635-0.62-11.449-1.239-17.441-1.86C80.098,18.333,84.775,16.706,89.994,15.413"/>
</g>
</svg>
