<?xml version="1.0" standalone="no"?><!DOCTYPE svg PUBLIC "-//W3C//DTD SVG 1.1//EN" "http://www.w3.org/Graphics/SVG/1.1/DTD/svg11.dtd"><svg t="1490259580139" class="icon" style="" viewBox="0 0 1024 1024" version="1.1" xmlns="http://www.w3.org/2000/svg" p-id="3784" xmlns:xlink="http://www.w3.org/1999/xlink" width="70" height="60"><defs><style type="text/css"></style></defs><path d="M703.5392 183.59296l1.94048 1.11616c6.64064 3.7632 14.16192 5.76 21.74464 5.76 15.57504 0 30.14656-8.28928 38.02112-21.74464l16.45568-28.09344c5.99552-10.28608 7.58272-22.272 4.46464-33.73568s-10.46016-20.92032-20.62848-26.68032l-1.94048-1.11616c-6.64064-3.7632-14.16192-5.76-21.74464-5.76-15.57504 0-30.14656 8.3456-38.02112 21.74464l-16.39424 28.032c-5.99552 10.22464-7.63904 22.15424-4.5824 33.61792C685.96736 168.25344 693.30944 177.77664 703.5392 183.59296z" p-id="3785" fill="#303342"></path><path d="M233.09312 174.06976c7.7568 13.28128 22.09792 21.57056 37.49376 21.57056 7.52128 0 14.9248-1.9968 21.4528-5.69856l2.87744-1.64352c10.22464-5.81632 17.51552-15.16032 20.56704-26.50624 3.05664-11.28448 1.46944-23.15264-4.46464-33.32096l-17.04448-29.09184c-7.7568-13.28128-22.09792-21.57056-37.49376-21.57056-7.52128 0-14.98624 1.9968-21.4528 5.69856l-2.87744 1.64352c-10.16832 5.81632-17.39776 15.22176-20.44928 26.50624s-1.46944 23.09632 4.40832 33.2032L233.09312 174.06976z" p-id="3786" fill="#303342"></path><path d="M513.00864 129.46944l3.1744 0c24.0384 0 43.60704-19.56864 43.60704-43.60704l0-33.02912c0-11.63776-4.52608-22.56896-12.75392-30.7968-8.28416-8.28928-19.21536-12.81024-30.85312-12.81024l-3.1744 0c-24.0384 0-43.60704 19.56864-43.60704 43.60704l0 33.02912C469.34528 109.95712 488.91392 129.46944 513.00864 129.46944z" p-id="3787" fill="#303342"></path><path d="M145.7664 285.8496l-29.32736-16.74752c-6.58432-3.7632-14.04416-5.69856-21.62688-5.69856-15.5136 0-29.97248 8.28928-37.72928 21.50912l-1.23392 2.05824c-5.93408 10.16832-7.58272 21.98016-4.52608 33.3824 3.05664 11.40224 10.40384 20.864 20.6848 26.74176l29.32736 16.6912c6.58432 3.7632 14.04416 5.69856 21.62688 5.69856 15.5136 0 29.97248-8.28928 37.72928-21.50912l1.23392-1.9968c5.93408-10.16832 7.58272-21.98016 4.52608-33.3824C163.33824 301.18912 155.99104 291.67104 145.7664 285.8496z" p-id="3788" fill="#303342"></path><path d="M973.16864 286.49472l-0.82432-1.29536c-7.87456-13.39904-22.4512-21.68832-38.02112-21.68832-7.58272 0-15.104 1.9968-21.74464 5.76l-28.97408 16.45568c-10.28608 5.87776-17.62816 15.45728-20.74624 26.91584-3.05664 11.45856-1.46944 23.33184 4.5824 33.73568l0.82432 1.29536c7.87456 13.39904 22.4512 21.68832 38.02112 21.68832 7.58272 0 15.104-1.9968 21.74464-5.76l28.97408-16.45568c10.28608-5.87776 17.62816-15.45728 20.74624-26.91584C980.80768 308.77184 979.22048 296.89856 973.16864 286.49472z" p-id="3789" fill="#303342"></path><path d="M631.42912 438.8864c-30.97088-12.98944-69.81632-12.69248-100.08064-0.35328-5.40672 1.87904-11.10528 4.5824-16.92672 8.11008-4.93568-3.05664-10.28608-5.93408-15.92832-7.87456-32.384-13.04576-70.28736-12.81024-100.7872 0-16.45568 6.64064-30.97088 16.39936-43.01824 28.79488-14.5152 14.5152-14.63296 37.84704 0.11776 53.53984 13.80864 13.34272 37.376 14.34112 53.59616-0.5888 4.70016-5.11488 10.86976-9.46176 17.16224-12.28288 14.34112-5.52448 30.7968-5.28896 43.66336-0.23552 6.70208 2.87744 12.87168 7.168 18.80576 13.34272 14.5152 13.22496 38.60992 13.46048 53.12512-0.64512 5.28896-5.52448 11.40224-9.81504 17.51552-12.45696 15.22176-5.69856 30.14656-5.40672 44.07808-0.29184 6.40512 2.82112 12.45696 7.05024 18.51392 13.1072 6.99392 6.70208 16.33792 10.46016 26.32704 10.46016 9.87136 0 19.2768-3.64544 27.32544-11.04896 13.87008-15.16032 13.75232-38.31808-0.52736-53.0688C661.75488 454.98368 647.23968 445.34784 631.42912 438.8864z" p-id="3790" fill="#303342"></path><path d="M514.42176 166.90176c-88.8576 0-173.7216 35.08736-236.544 98.2016C214.46656 328.45824 179.44064 413.08672 179.44064 502.17984c0 89.38496 35.08736 174.01344 98.43712 236.83584 12.98944 13.57824 27.4432 25.74336 43.01824 37.08416l0 126.76608c0 22.62528 18.0992 40.1408 39.90528 40.1408l51.77344 0c5.69856 14.16192 14.1056 26.91584 24.91904 37.90848 20.33152 20.6848 48.13312 32.26624 76.928 32.26624 29.14816 0 56.88832-11.87328 77.21984-32.55808 11.04896-10.75712 18.92352-23.4496 24.56576-37.61152l52.0704 0c22.09792 0 39.60832-17.51552 39.60832-40.1408l0-126.76608c15.81056-11.3408 30.56128-23.50592 43.5456-37.08416 63.11936-62.8224 98.2016-147.38944 98.2016-236.83584 0-89.09312-35.08736-173.7216-98.2016-237.07136C688.67072 201.98912 603.80672 166.90176 514.42176 166.90176zM628.13696 863.19104l-44.43136 0c-21.80096 0-40.1408 17.86368-40.1408 39.60832l0 1.11616c0 7.87456-2.52928 14.6944-8.22784 20.33152-5.93408 5.11488-12.98944 8.46336-20.92032 8.46336-7.3472 0-14.6944-2.87744-20.33152-7.93088l0-0.52736c-5.69856-5.11488-8.46336-12.98944-8.46336-20.33152l0-1.11616c0-21.80096-18.0992-39.60832-40.19712-39.60832L400.9984 863.19616l0-45.54752c36.49536 13.28128 74.69568 19.51232 113.42336 19.51232 39.02464 0 77.21984-6.23104 113.77664-19.51232l0 45.54752L628.13696 863.19616zM694.89664 682.4192c-14.1056 14.1056-29.68064 26.56256-46.36672 37.02272l-1.70496 1.1776c-40.19712 24.0384-85.44768 36.49536-132.40832 36.49536-46.42816 0-92.55936-12.45696-132.40832-36.49536l-1.408-1.1776c-16.6912-10.46016-32.26624-22.92224-46.42816-37.02272-48.13312-47.77984-74.98752-112.896-74.98752-180.24448 0-68.46464 26.91584-132.40832 74.98752-180.18304 47.83616-47.83616 112.3072-74.69568 180.24448-74.69568s132.40832 26.85952 180.48 74.69568c48.13312 47.77984 74.69568 111.7184 74.69568 180.18304C769.59232 569.52832 743.02976 634.58304 694.89664 682.4192z" p-id="3791" fill="#303342"></path></svg>