<?xml version="1.0" standalone="no"?><!DOCTYPE svg PUBLIC "-//W3C//DTD SVG 1.1//EN" "http://www.w3.org/Graphics/SVG/1.1/DTD/svg11.dtd"><svg t="1490244569768" class="icon" style="" viewBox="0 0 1024 1024" version="1.1" xmlns="http://www.w3.org/2000/svg" p-id="3514" xmlns:xlink="http://www.w3.org/1999/xlink" width="70" height="60"><defs><style type="text/css"></style></defs><path d="M657.19487 509.286192c0 163.253154-132.343167 295.596322-295.595298 295.596322-163.253154 0-295.596322-132.343167-295.596322-295.596322l0 0L66.00325 283.687084c0-38.658462 31.338752-69.996191 69.996191-69.996191s69.996191 31.338752 69.996191 69.996191l0 225.599108c0 85.937255 69.665663 155.601894 155.601894 155.601894s155.601894-69.664639 155.601894-155.601894L517.199419 283.687084c0-38.658462 31.338752-69.996191 69.997214-69.996191 38.658462 0 69.996191 31.338752 69.996191 69.996191L657.192823 509.286192zM957.992657 734.884276c0 38.658462-31.338752 69.996191-69.996191 69.996191s-69.996191-31.338752-69.996191-69.996191L818.000276 283.687084c0-38.658462 31.338752-69.996191 69.996191-69.996191s69.996191 31.338752 69.996191 69.996191L957.992657 734.884276z" p-id="3515" fill="#303342"></path></svg>